<?xml version="1.0" encoding="UTF-8" standalone="no"?>
<svg xmlns="http://www.w3.org/2000/svg" version="1.1" width="300" height="300"><line x1="50" y1="160" x2="50" y2="220" stroke= "black" stroke-width="1"/><rect x="42" y="120" width="16" height="40" stroke= "black"/><line x1="75" y1="235" x2="100" y2="235" stroke= "black" stroke-width="1"/><line x1="50" y1="275" x2="200" y2="275" stroke= "black" stroke-width="1"/><circle cx="50" cy="180" r="3" stroke= "black" fill="black"/><line x1="50" y1="100" x2="50" y2="120" stroke= "black" stroke-width="1"/><line x1="200" y1="250" x2="175" y2="240" stroke= "black"/><line x1="75" y1="220" x2="75" y2="250" stroke= "black" stroke-width="3"/><circle cx="100" cy="100" r="3" stroke= "black" fill="black"/><line x1="100" y1="160" x2="100" y2="180" stroke= "black" stroke-width="1"/><line x1="200" y1="220" x2="175" y2="230" stroke= "black" stroke-width="1"/><line x1="110" y1="290" x2="140" y2="290" stroke= "black" stroke-width="1"/><line x1="178" y1="165" x2="178" y2="195" stroke= "black" stroke-width="1"/><line x1="200" y1="160" x2="200" y2="220" stroke= "black" stroke-width="1"/><line x1="100" y1="180" x2="150" y2="235" stroke= "black" stroke-width="1"/><line x1="150" y1="180" x2="100" y2="235" stroke= "black" stroke-width="1"/><line x1="200" y1="250" x2="200" y2="275" stroke= "black" stroke-width="1"/><line x1="200" y1="100" x2="200" y2="120" stroke= "black" stroke-width="1"/><circle cx="125" cy="275" r="3" stroke= "black" fill="black"/><line x1="78" y1="165" x2="78" y2="195" stroke= "black" stroke-width="1"/><line x1="50" y1="100" x2="250" y2="100" stroke= "black"/><circle cx="100" cy="180" r="3" stroke= "black" fill="black"/><line x1="100" y1="100" x2="100" y2="120" stroke= "black" stroke-width="1"/><rect x="92" y="120" width="16" height="40" stroke= "black"/><circle cx="200" cy="100" r="3" stroke= "black" fill="black"/><circle cx="200" cy="180" r="3" stroke= "black" fill="black"/><line x1="50" y1="180" x2="72" y2="180" stroke= "black" stroke-width="1"/><line x1="72" y1="165" x2="72" y2="195" stroke= "black" stroke-width="1"/><circle cx="70" cy="235" r="25" stroke= "black" fill="none"/><line x1="150" y1="100" x2="150" y2="120" stroke= "black" stroke-width="1"/><line x1="125" y1="275" x2="125" y2="290" stroke= "black" stroke-width="1"/><line x1="78" y1="180" x2="100" y2="180" stroke= "black" stroke-width="1"/><line x1="150" y1="180" x2="172" y2="180" stroke= "black" stroke-width="1"/><circle cx="180" cy="235" r="25" stroke= "black" fill="none"/><line x1="172" y1="165" x2="172" y2="195" stroke= "black" stroke-width="1"/><circle cx="150" cy="180" r="3" stroke= "black" fill="black"/><line x1="178" y1="180" x2="250" y2="180" stroke= "black"/><line x1="150" y1="160" x2="150" y2="180" stroke= "black" stroke-width="1"/><line x1="175" y1="235" x2="150" y2="235" stroke= "black" stroke-width="1"/><rect x="142" y="120" width="16" height="40" stroke= "black"/><line x1="50" y1="250" x2="50" y2="275" stroke= "black" stroke-width="1"/><circle cx="150" cy="100" r="3" stroke= "black" fill="black"/><rect x="192" y="120" width="16" height="40" stroke= "black"/><line x1="50" y1="220" x2="75" y2="230" stroke= "black" stroke-width="1"/><line x1="175" y1="220" x2="175" y2="250" stroke= "black" stroke-width="3"/><line x1="50" y1="250" x2="75" y2="240" stroke= "black"/></svg>